<svg xmlns="http://www.w3.org/2000/svg" viewBox="0 0 1200 540" font-family="IBM Plex Sans, ui-sans-serif, system-ui" font-size="13">
  <defs>
    <marker id="arrow" markerWidth="8" markerHeight="8" refX="7" refY="4" orient="auto" markerUnits="strokeWidth">
      <path d="M0,0 L0,8 L8,4 z" fill="#64748b"/>
    </marker>
    <marker id="arrowRev" markerWidth="8" markerHeight="8" refX="1" refY="4" orient="auto" markerUnits="strokeWidth">
      <path d="M8,0 L8,8 L0,4 z" fill="#64748b"/>
    </marker>
    <pattern id="dots" x="0" y="0" width="6" height="6" patternUnits="userSpaceOnUse">
      <circle cx="1" cy="1" r="0.6" fill="#cbd5e1"/>
    </pattern>
  </defs>

  <!-- titulo -->
  <text x="600" y="30" text-anchor="middle" font-size="18" font-weight="600" fill="#0f172a">PageHeader Canon v3 — Geometria 3 zonas (cozy density)</text>
  <text x="600" y="50" text-anchor="middle" font-size="12" fill="#64748b">flex · items-center · gap 24px · min-h 64px · border-b 1px · padding 20/16/32</text>

  <!-- viewport ruler -->
  <line x1="80" y1="80" x2="1120" y2="80" stroke="#94a3b8" stroke-width="0.5" stroke-dasharray="3 3"/>
  <text x="600" y="74" text-anchor="middle" font-size="10" fill="#94a3b8">viewport 1280px (Larissa) · container max-w-7xl px-8</text>

  <!-- header outline -->
  <rect x="80" y="100" width="1040" height="120" fill="white" stroke="#cbd5e1" stroke-width="1"/>
  <line x1="80" y1="220" x2="1120" y2="220" stroke="#64748b" stroke-width="1.5"/>
  <text x="1130" y="223" font-size="10" fill="#64748b" font-style="italic">border-bottom 1px</text>

  <!-- padding indicators -->
  <line x1="80" y1="100" x2="80" y2="220" stroke="#0ea5e9" stroke-width="0.5" stroke-dasharray="2 2"/>
  <line x1="112" y1="100" x2="112" y2="220" stroke="#0ea5e9" stroke-width="0.5" stroke-dasharray="2 2"/>
  <line x1="96" y1="100" x2="96" y2="120" stroke="#0ea5e9" stroke-width="1" marker-end="url(#arrow)" marker-start="url(#arrowRev)"/>
  <text x="76" y="115" font-size="9" fill="#0ea5e9" text-anchor="end">pt 20</text>
  <line x1="96" y1="200" x2="96" y2="220" stroke="#0ea5e9" stroke-width="1" marker-end="url(#arrow)" marker-start="url(#arrowRev)"/>
  <text x="76" y="215" font-size="9" fill="#0ea5e9" text-anchor="end">pb 16</text>
  <rect x="80" y="100" width="32" height="120" fill="url(#dots)" opacity="0.3"/>
  <text x="96" y="160" font-size="9" fill="#0ea5e9" text-anchor="middle" transform="rotate(-90 96 160)">px 32</text>

  <!-- ZONA L -->
  <rect x="120" y="125" width="350" height="70" fill="#fef3c7" stroke="#f59e0b" stroke-width="1.5" rx="4" opacity="0.5"/>
  <text x="130" y="120" font-size="11" font-weight="600" fill="#92400e">ZONA L · flex-1 min-w-0</text>
  <text x="135" y="150" font-size="22" font-weight="600" fill="#0f172a">Clientes</text>
  <text x="225" y="150" font-size="22" font-weight="600" fill="#94a3b8">· cadastro</text>
  <text x="135" y="180" font-size="13.5" fill="#64748b">31 cadastrados · 4 ativos</text>
  <text x="290" y="180" font-size="13.5" fill="#b91c1c" font-weight="500"> · 2 com saldo</text>

  <!-- gap 1 -->
  <line x1="470" y1="160" x2="494" y2="160" stroke="#10b981" stroke-width="1" marker-end="url(#arrow)" marker-start="url(#arrowRev)"/>
  <text x="482" y="155" font-size="9" fill="#10b981" text-anchor="middle">gap 24</text>

  <!-- ZONA C -->
  <rect x="494" y="125" width="380" height="70" fill="#dbeafe" stroke="#3b82f6" stroke-width="1.5" rx="4" opacity="0.5"/>
  <text x="504" y="120" font-size="11" font-weight="600" fill="#1e40af">ZONA C · shrink-0 align-self-stretch</text>
  <!-- tabs visualization -->
  <g transform="translate(504 145)">
    <rect width="56" height="36" rx="4" fill="white" stroke="#e2e8f0"/>
    <text x="28" y="22" text-anchor="middle" font-size="13" fill="#64748b">Todos</text>
    <rect x="62" width="72" height="36" rx="4" fill="white" stroke="#e2e8f0"/>
    <text x="98" y="22" text-anchor="middle" font-size="13" fill="#0f172a" font-weight="600">Clientes</text>
    <line x1="62" y1="35" x2="134" y2="35" stroke="oklch(0.55 0.15 202)" stroke-width="2"/>
    <rect x="136" width="100" height="36" rx="4" fill="white" stroke="#e2e8f0"/>
    <text x="186" y="22" text-anchor="middle" font-size="13" fill="#64748b">Fornec.</text>
    <rect x="238" width="106" height="36" rx="4" fill="white" stroke="#e2e8f0"/>
    <text x="291" y="22" text-anchor="middle" font-size="13" fill="#64748b">Funcion.</text>
  </g>
  <text x="684" y="200" text-anchor="middle" font-size="9" fill="#1e40af" font-style="italic">underline 2px · -mb 1px → morde linha base</text>

  <!-- gap 2 -->
  <line x1="874" y1="160" x2="898" y2="160" stroke="#10b981" stroke-width="1" marker-end="url(#arrow)" marker-start="url(#arrowRev)"/>
  <text x="886" y="155" font-size="9" fill="#10b981" text-anchor="middle">gap 24</text>

  <!-- ZONA R -->
  <rect x="898" y="125" width="190" height="70" fill="#fce7f3" stroke="#db2777" stroke-width="1.5" rx="4" opacity="0.5"/>
  <text x="908" y="120" font-size="11" font-weight="600" fill="#9d174d">ZONA R · shrink-0 ml-auto</text>
  <rect x="908" y="145" width="36" height="36" rx="6" fill="white" stroke="#e2e8f0"/>
  <circle cx="926" cy="159" r="1.5" fill="#64748b"/>
  <circle cx="926" cy="163" r="1.5" fill="#64748b"/>
  <circle cx="926" cy="167" r="1.5" fill="#64748b"/>
  <rect x="952" y="145" width="130" height="36" rx="6" fill="oklch(0.55 0.15 202)" stroke="oklch(0.45 0.15 202)"/>
  <text x="1017" y="167" text-anchor="middle" font-size="13" fill="white" font-weight="500">+ Novo cliente</text>

  <!-- height ruler -->
  <line x1="1145" y1="100" x2="1145" y2="220" stroke="#64748b" stroke-width="0.5"/>
  <line x1="1140" y1="100" x2="1150" y2="100" stroke="#64748b" stroke-width="0.5"/>
  <line x1="1140" y1="220" x2="1150" y2="220" stroke="#64748b" stroke-width="0.5"/>
  <text x="1155" y="165" font-size="10" fill="#64748b">min-h 64+</text>

  <!-- baseline alignment line -->
  <line x1="80" y1="166" x2="1120" y2="166" stroke="#ef4444" stroke-width="0.5" stroke-dasharray="4 2" opacity="0.5"/>
  <text x="1130" y="170" font-size="9" fill="#ef4444" font-style="italic">items-center · linha baseline</text>

  <!-- ================== legenda ================== -->
  <text x="80" y="270" font-size="14" font-weight="600" fill="#0f172a">Tokens (cozy default)</text>

  <g transform="translate(80 290)" font-size="11" fill="#334155">
    <text font-weight="600">Container</text>
    <text y="20">min-height: 64px</text>
    <text y="38">padding: 20px 32px 16px</text>
    <text y="56">gap zonas: 24px</text>
    <text y="74">border-bottom: 1px hsl(border)</text>
    <text y="92">backdrop-filter: blur(8) sat(120%)</text>
  </g>

  <g transform="translate(310 290)" font-size="11" fill="#334155">
    <text font-weight="600">Tipografia</text>
    <text y="20">H1: 22px / 600 / -0.011em</text>
    <text y="38">Subtitle: 13.5px / 400</text>
    <text y="56">Tab: 13.5px / 500 (600 ativo)</text>
    <text y="74">Btn: 13px / 500</text>
    <text y="92">tabular-nums em metricas</text>
  </g>

  <g transform="translate(540 290)" font-size="11" fill="#334155">
    <text font-weight="600">Dimensoes</text>
    <text y="20">Tab altura: 36px</text>
    <text y="38">Tab padding-x: 12px · gap 6px</text>
    <text y="56">Btn altura: 36px · radius 6px</text>
    <text y="74">Btn padding-x: 12px · gap 6px</text>
    <text y="92">Icone: 14px · opacity 0.7→1</text>
  </g>

  <g transform="translate(770 290)" font-size="11" fill="#334155">
    <text font-weight="600">Cores (cadastro hue 202)</text>
    <rect x="0" y="10" width="14" height="14" fill="oklch(0.55 0.15 202)" stroke="#e2e8f0"/>
    <text x="20" y="22">primary bg: oklch(0.55 0.15 202)</text>
    <rect x="0" y="28" width="14" height="14" fill="oklch(0.45 0.15 202)" stroke="#e2e8f0"/>
    <text x="20" y="40">primary border: oklch(0.45 0.15 202)</text>
    <rect x="0" y="46" width="14" height="14" fill="oklch(0.48 0.16 202)" stroke="#e2e8f0"/>
    <text x="20" y="58">primary hover: oklch(0.48 0.16 202)</text>
    <rect x="0" y="64" width="14" height="14" fill="#e2e8f0" stroke="#cbd5e1"/>
    <text x="20" y="76">border base: hsl(214 32 91)</text>
    <rect x="0" y="82" width="14" height="14" fill="#64748b"/>
    <text x="20" y="94">muted-foreground: slate-500</text>
  </g>

  <g transform="translate(1010 290)" font-size="11" fill="#334155">
    <text font-weight="600">Timing</text>
    <text y="20">hover: 120ms ease-smooth</text>
    <text y="38">click: 60ms ease-snap</text>
    <text y="56">underline slide: spring 380/30</text>
    <text y="74">scroll shadow: 180ms smooth</text>
    <text y="92">skeleton: 1500ms linear loop</text>
  </g>

  <!-- ================== regras criticas ================== -->
  <text x="80" y="425" font-size="14" font-weight="600" fill="#dc2626">5 regras criticas (anti-padroes catalogados)</text>

  <g transform="translate(80 445)" font-size="11" fill="#334155">
    <text font-weight="600" fill="#dc2626">1.</text>
    <text x="18">items-center (NUNCA items-start)</text>
    <text y="16" x="18" fill="#64748b" font-size="10">Quando L tem 2 linhas e R tem 1, items-start faz R flutuar no topo.</text>
  </g>
  <g transform="translate(310 445)" font-size="11" fill="#334155">
    <text font-weight="600" fill="#dc2626">2.</text>
    <text x="18">L precisa de min-w-0 + truncate</text>
    <text y="16" x="18" fill="#64748b" font-size="10">Sem isso, titulo longo empurra C/R pra fora.</text>
  </g>
  <g transform="translate(540 445)" font-size="11" fill="#334155">
    <text font-weight="600" fill="#dc2626">3.</text>
    <text x="18">R precisa de ml-auto + shrink-0</text>
    <text y="16" x="18" fill="#64748b" font-size="10">Sem ml-auto, C cola na R em viewport largo.</text>
  </g>
  <g transform="translate(770 445)" font-size="11" fill="#334155">
    <text font-weight="600" fill="#dc2626">4.</text>
    <text x="18">Underline com -mb-px</text>
    <text y="16" x="18" fill="#64748b" font-size="10">Sem isso, underline flutua 1px acima da linha base.</text>
  </g>
  <g transform="translate(1010 445)" font-size="11" fill="#334155">
    <text font-weight="600" fill="#dc2626">5.</text>
    <text x="18">tabular-nums em metricas</text>
    <text y="16" x="18" fill="#64748b" font-size="10">Sem isso, numeros "dancam" 1-2px ao atualizar.</text>
  </g>

  <!-- footer -->
  <text x="600" y="510" text-anchor="middle" font-size="10" fill="#94a3b8">SPEC.md (30 secoes) · index.html (5 demos interativos) · diagram.svg (este arquivo)</text>
  <text x="600" y="525" text-anchor="middle" font-size="10" fill="#94a3b8">prototipo-ui/prototipos/pageheader-canon-v3/ · proposal pending Wagner approval · 2026-05-24</text>
</svg>
